<?xml version="1.0" encoding="utf-8"?>
<!-- Generator: Adobe Illustrator 25.4.1, SVG Export Plug-In . SVG Version: 6.00 Build 0)  -->
<svg version="1.1" id="Layer_1" xmlns="http://www.w3.org/2000/svg" xmlns:xlink="http://www.w3.org/1999/xlink" x="0px" y="0px"
	 viewBox="0 0 78 78" style="enable-background:new 0 0 78 78;" xml:space="preserve">
<style type="text/css">
	.st0{fill:#EDEDED;}
	.st1{fill:#FFFFFF;}
	.st2{fill:none;stroke:#000000;stroke-miterlimit:10;}
	.st3{fill:#BC4236;}
	.st4{fill:#F98A00;}
	.st5{fill:#BEDDFC;}
	.st6{opacity:0.5;fill:#FFFFFF;}
	.st7{fill:url(#SVGID_00000077325180418477120190000016790630915125858714_);}
	.st8{clip-path:url(#SVGID_00000147191943487421397850000001426803521991261587_);}
	.st9{clip-path:url(#SVGID_00000000924115731083333530000005618678966314185644_);}
	.st10{opacity:0.5;fill:#E5E5E5;}
	.st11{fill:#C1C1C1;}
	.st12{fill:#505050;}
	.st13{fill:#CD486B;}
	.st14{fill:#1EA0E2;}
	.st15{fill:#4267B2;}
	.st16{opacity:0.5;}
	.st17{fill:none;stroke:#FFFFFF;stroke-miterlimit:10;}
	.st18{display:none;fill:none;stroke:#DDDDDD;stroke-miterlimit:10;}
	.st19{fill:#DDDDDD;}
	.st20{fill:#2E3192;}
	.st21{fill:none;stroke:#BC4236;stroke-width:1.5;stroke-miterlimit:10;}
	.st22{fill:none;stroke:#BC4236;stroke-width:1.5;stroke-linecap:round;stroke-miterlimit:10;}
	.st23{fill:none;stroke:#BC4236;stroke-linecap:round;stroke-miterlimit:10;}
	.st24{opacity:0.8;fill:#0071BC;}
	.st25{opacity:0.88;fill:#07173B;}
	.st26{fill:none;stroke:#000000;stroke-width:1.5;stroke-miterlimit:10;}
	.st27{fill:none;stroke:#D33129;stroke-width:1.5;stroke-miterlimit:10;}
	.st28{fill:#D33129;}
	.st29{fill:none;stroke:#FFFFFF;stroke-width:1.5;stroke-miterlimit:10;}
	.st30{fill:#07173B;}
	.st31{opacity:0.4;}
	.st32{fill:url(#SVGID_00000160150353154490910210000015786412459563699330_);}
	.st33{fill:url(#SVGID_00000059288871441088734200000018309030659791762334_);}
	.st34{fill:url(#SVGID_00000171705907387605780460000007157477624683398071_);}
	.st35{fill:url(#SVGID_00000022523367248118188810000015422163197283007395_);}
	.st36{fill:url(#SVGID_00000136380614064028821230000005985746160001717894_);}
	.st37{fill:url(#SVGID_00000083058816833797234130000003055827711220088252_);}
	.st38{fill:url(#SVGID_00000116200341315576225150000014598509770687274400_);}
	.st39{fill:url(#SVGID_00000032632374572948546230000008328437826186615721_);}
	.st40{fill:url(#SVGID_00000167367420233865347350000011984501515955121552_);}
	.st41{fill:url(#SVGID_00000033336844372243529180000016667818513441787070_);}
	.st42{fill:url(#SVGID_00000175310916077406098340000012736945613365592485_);}
	.st43{fill:url(#SVGID_00000156583545521056818470000003567560027468786096_);}
	.st44{fill:url(#SVGID_00000017506241414669257090000011907739009847779729_);}
	.st45{fill:url(#SVGID_00000093863413668911458640000000344405098388341417_);}
	.st46{fill:url(#SVGID_00000025405469103010798910000011354198567063256718_);}
	.st47{fill:url(#SVGID_00000062159105544481885730000004578233196633204400_);}
	.st48{fill:url(#SVGID_00000160176799209520956470000007779759727061788848_);}
	.st49{fill:url(#SVGID_00000034087780765543833720000009188052600506438296_);}
	.st50{fill:url(#SVGID_00000072982743698944706490000011014630136948349092_);}
	.st51{fill:url(#SVGID_00000013172550497768039250000004607463574610927503_);}
	.st52{fill:url(#SVGID_00000014629979206958996290000004981958844421116310_);}
	.st53{fill:url(#SVGID_00000174582766469019179980000012739267180704729774_);}
	.st54{fill:url(#SVGID_00000011744091757380015310000003551766473054566052_);}
	.st55{fill:url(#SVGID_00000122706664866861298460000016049465130647531434_);}
	.st56{fill:url(#SVGID_00000029022065331567824210000017568996923915708837_);}
	.st57{fill:url(#SVGID_00000132051722634436845450000012021763447770190750_);}
	.st58{fill:url(#SVGID_00000160894754174580549020000014358919423419677118_);}
	.st59{fill:url(#SVGID_00000168837501405314827640000001629345053012073863_);}
	.st60{fill:url(#SVGID_00000044897596059059122540000011050811602384920984_);}
	.st61{fill:url(#SVGID_00000182499612623077694050000011096662355487164323_);}
	.st62{fill:url(#SVGID_00000045594494169420674580000005453706491829909684_);}
	.st63{fill:url(#SVGID_00000021107271197319287700000008186131319643882925_);}
	.st64{fill:url(#SVGID_00000097487185616133405360000005557454198578093996_);}
	.st65{fill:url(#SVGID_00000109716127246954671120000000432186995285444277_);}
	.st66{fill:url(#SVGID_00000100345710565887467000000009267648534034223233_);}
	.st67{fill:url(#SVGID_00000126319594818736375750000005120424893647005588_);}
	.st68{fill:url(#SVGID_00000176006509691649629850000016552794310595371441_);}
	.st69{fill:url(#SVGID_00000164498464069905382140000011932017505338763920_);}
	.st70{fill:url(#SVGID_00000075874575532834141330000009057843565729437578_);}
	.st71{fill:url(#SVGID_00000103984054250584312410000009241182469654389140_);}
	.st72{fill:url(#SVGID_00000018951786977519254430000003580825504337124487_);}
	.st73{fill:url(#SVGID_00000013152916920225118440000000025839332958694058_);}
	.st74{fill:url(#SVGID_00000023258909243291828430000003105404028334971315_);}
	.st75{fill:url(#SVGID_00000002363581545469329540000011090265034535064494_);}
	.st76{fill:url(#SVGID_00000035519550807830111710000000894478137327027595_);}
	.st77{fill:url(#SVGID_00000021115200669629717930000000255952555878248892_);}
	.st78{fill:url(#SVGID_00000001640528541234439970000000123101609126482592_);}
	.st79{fill:url(#SVGID_00000161622695978473095390000011879389536162174898_);}
	.st80{fill:url(#SVGID_00000026843971642871312220000011237825330963062718_);}
	.st81{fill:url(#SVGID_00000067208719764595007870000016395006587595703993_);}
	.st82{fill:url(#SVGID_00000012468394751020524510000012238112191491627427_);}
	.st83{fill:url(#SVGID_00000059988996317770435470000012869360176203489428_);}
	.st84{fill:url(#SVGID_00000085930524067938677240000006550126914780351165_);}
	.st85{fill:url(#SVGID_00000133530915029784358710000013435459129391743927_);}
	.st86{fill:url(#SVGID_00000041997395470741349850000007259264837036509602_);}
	.st87{fill:none;stroke:#BC4236;stroke-miterlimit:10;}
	.st88{fill:url(#SVGID_00000066492503641948382760000005360185429546639796_);}
	.st89{clip-path:url(#SVGID_00000134213991263072334960000013667167354901371274_);}
	.st90{clip-path:url(#SVGID_00000108306315477572681870000007778546169905343876_);}
	.st91{clip-path:url(#SVGID_00000129907236275157822940000006980376381075507384_);}
	.st92{fill:none;stroke:#666666;stroke-miterlimit:10;}
	.st93{fill:#E1E8ED;}
	.st94{clip-path:url(#SVGID_00000053547570344381381070000004446347674013721239_);}
	.st95{fill:#114C91;}
	.st96{fill:#07173B;stroke:#07173B;stroke-miterlimit:10;}
	.st97{fill:none;stroke:#07173B;stroke-miterlimit:10;}
	.st98{fill:url(#SVGID_00000018933444189579458360000005919951364687238589_);}
	.st99{fill:url(#SVGID_00000109718745979822445710000013715060351258273671_);}
	.st100{fill:url(#SVGID_00000046307699140849489270000000690474047694582957_);}
	.st101{fill:url(#SVGID_00000157267920677286275600000004147398195016813721_);}
	.st102{fill:url(#SVGID_00000085231870329631973350000017020268857503099008_);}
	.st103{fill:url(#SVGID_00000116914447528063296050000001521053980633003919_);}
	.st104{fill:url(#SVGID_00000160178579843878356670000010298198749499085244_);}
	.st105{fill:url(#SVGID_00000002351978361879961950000000382076592628031392_);}
	.st106{fill:url(#SVGID_00000060734532930131616930000012489560688570439096_);}
	.st107{fill:url(#SVGID_00000022535698720882702860000000538563555546101907_);}
	.st108{fill:url(#SVGID_00000059279123437053583680000006216233598898054531_);}
	.st109{fill:url(#SVGID_00000182519704871279667510000005965146246306358704_);}
	.st110{fill:url(#SVGID_00000183942504537828141950000005366061262706935964_);}
	.st111{fill:url(#SVGID_00000022518813582820242100000013426971161971796650_);}
	.st112{fill:url(#SVGID_00000157999795189316156600000016378683441142039731_);}
	.st113{fill:url(#SVGID_00000012471134172129956330000010945321483105841850_);}
	.st114{fill:url(#SVGID_00000026871997918808253390000000403963942469708467_);}
	.st115{fill:url(#SVGID_00000123399113748715282670000008169289721710217121_);}
	.st116{fill:url(#SVGID_00000102529389630676029600000009407127097932030131_);}
	.st117{fill:url(#SVGID_00000136387061607810620010000017193971607958474117_);}
	.st118{fill:url(#SVGID_00000000180328601482900740000006032330763165373360_);}
	.st119{fill:url(#SVGID_00000080892002325078085570000016322669891154395783_);}
	.st120{fill:url(#SVGID_00000165926448589170586170000006494806493074216588_);}
	.st121{fill:url(#SVGID_00000059299811355966013110000013441887952073895814_);}
	.st122{fill:url(#SVGID_00000114771386596117862910000015014821525980298169_);}
	.st123{fill:url(#SVGID_00000159452663136283459210000012752970607087862442_);}
	.st124{fill:url(#SVGID_00000160148864966074401030000008056015845036506297_);}
	.st125{fill:url(#SVGID_00000102510028348984889990000002295295344640196254_);}
	.st126{fill:url(#SVGID_00000107556482762265001620000015876944390279572640_);}
	.st127{fill:url(#SVGID_00000142162207242614524580000007316027170122355095_);}
	.st128{fill:url(#SVGID_00000147943050390319588770000016470394361053668504_);}
	.st129{fill:url(#SVGID_00000060751521005857758800000012424775696734795934_);}
	.st130{fill:url(#SVGID_00000116920114117272586050000010076289646522726564_);}
	.st131{fill:url(#SVGID_00000005238048474662592370000016181485622522514319_);}
	.st132{fill:url(#SVGID_00000150786800311178889330000002602011718153243013_);}
	.st133{fill:url(#SVGID_00000178917474510361593500000018434912482665137595_);}
	.st134{fill:url(#SVGID_00000070822297757252961820000010242824589259928993_);}
	.st135{fill:url(#SVGID_00000096039271201872489240000000717342760871830145_);}
	.st136{fill:url(#SVGID_00000176731253667166974370000002949974975059436699_);}
	.st137{fill:url(#SVGID_00000156572516600765373380000013016220070723342217_);}
	.st138{fill:url(#SVGID_00000174561176108714086240000015499116914128845722_);}
	.st139{fill:url(#SVGID_00000055672753922166246410000016924929138580422580_);}
	.st140{fill:url(#SVGID_00000122704174842864010480000006608490627626622593_);}
	.st141{fill:url(#SVGID_00000156562965625576876380000010909680578852044199_);}
	.st142{fill:url(#SVGID_00000067932136710599977290000003899744750386124708_);}
	.st143{fill:url(#SVGID_00000043454467843534935140000010672798571793893276_);}
	.st144{fill:url(#SVGID_00000121971260145970786010000001394415674058683053_);}
	.st145{fill:url(#SVGID_00000176751219911383535770000002721993645216889752_);}
	.st146{fill:url(#SVGID_00000044139611129110904020000009599724379031320482_);}
	.st147{fill:url(#SVGID_00000175319912229986804710000013646230991138468772_);}
	.st148{fill:url(#SVGID_00000042716408480345322040000004223190721339454340_);}
	.st149{fill:url(#SVGID_00000117656807291202437270000009318503595165607323_);}
	.st150{fill:url(#SVGID_00000004522563608009573690000011794228356248057230_);}
	.st151{fill:url(#SVGID_00000165210168161404753890000005860177876941048248_);}
	.st152{fill:url(#SVGID_00000029755715644326598650000012677513191383143078_);}
	.st153{fill:none;stroke:#FFFFFF;stroke-width:1.5;stroke-linecap:round;stroke-miterlimit:10;}
	.st154{fill:none;stroke:#FFFFFF;stroke-width:0.5;stroke-miterlimit:10;}
	.st155{opacity:0.2;fill:none;stroke:#FFFFFF;stroke-miterlimit:10;}
</style>
<g>
	<path class="st28" d="M59.17,38.77c-3.06-5.82-7.58-10.4-10.51-13.01c1.87-0.01,5.71,0.3,8.06,2.74l1.08-1.04
		c-1.73-1.79-4.05-2.59-6.07-2.94c0.24-0.14,0.46-0.29,0.64-0.44c1.07-0.87,1.63-2.16,1.54-3.54c-0.17-2.57-2.77-3.62-3.84-3.95
		c0.09-0.82,0.14-1.68,0.14-2.62c0-0.48-0.23-0.93-0.61-1.21c-0.37-0.26-0.82-0.33-1.25-0.18l-3.1,1.68
		c-0.48,0.17-1.01,0.14-1.41-0.04l-2.69-1.63c-1.02-0.48-2.18-0.48-3.28,0.05l-1.93,1.24c-0.84,0.4-1.81,0.43-2.68,0.09l-2.16-1.29
		l-0.11-0.05c-0.5-0.2-1.05-0.14-1.49,0.16c-0.45,0.31-0.72,0.82-0.72,1.38c0,2.14,0.17,4.91,1.53,7.28
		c0.5,0.88,1.15,1.61,1.89,2.24c-1.93,1.42-9.21,7.12-13.39,15.09c-3.4,6.47-4.19,13.25-2.25,19.09c2.25,6.73,8.78,7.71,13.5,7.85
		c1.35,0.04,3.31,0.05,5.31,0.05c1.22,0,2.47-0.01,3.6-0.01c1.14,0.01,2.38,0.01,3.6,0.01c2.01,0,3.96-0.01,5.32-0.05
		c4.72-0.14,11.26-1.12,13.5-7.85C63.37,52.02,62.57,45.24,59.17,38.77z M52.42,20.63c0.06,0.91-0.29,1.72-0.99,2.28
		c-0.96,0.77-2.48,1.01-4.35,0.71c1.39-1.29,2.31-3.12,2.77-5.53C50.72,18.39,52.33,19.14,52.42,20.63z M31.63,20.7
		c-1.18-2.06-1.33-4.58-1.33-6.54c0-0.08,0.04-0.12,0.06-0.13s0.03-0.02,0.05-0.02c0,0,0.01,0,0.01,0l2.14,1.28l0.1,0.05
		c1.27,0.53,2.71,0.49,4.03-0.15l1.93-1.24c0.61-0.29,1.3-0.29,1.84-0.04l2.68,1.63c0.84,0.4,1.82,0.44,2.69,0.11l2.89-1.57
		c-0.02,4.36-1.02,7.24-3.07,8.81c-1.05,0.8-2.3,1.18-3.57,1.37c1.75-2.54,2.23-4.93,2.25-5.05l-1.47-0.28
		c-0.01,0.03-0.59,2.88-2.78,5.48c-0.18,0-0.37,0.01-0.55,0.01c-0.15,0-0.29-0.01-0.44-0.02c-2.19-2.6-2.77-5.44-2.77-5.47
		l-1.47,0.28c0.02,0.12,0.5,2.47,2.22,4.99C34.54,23.77,32.72,22.6,31.63,20.7z M59.99,57.39c-1.95,5.84-7.85,6.69-12.12,6.82
		c-1.12,0.03-2.65,0.05-4.29,0.05l0-0.05c-0.04,0-2.03,0.03-4.55,0.04c-2.55-0.02-4.57-0.04-4.61-0.04l0,0.05
		c-1.63,0-3.17-0.02-4.29-0.05c-4.27-0.13-10.18-0.98-12.12-6.82C15.55,50.03,18.3,43,20.16,39.47
		c4.55-8.66,13.21-14.76,13.39-14.89c0.79,0.44,1.68,0.77,2.67,0.99l-3.08,2.94l1.04,1.08l3.92-3.74c0.22,0.02,0.45,0.02,0.68,0.03
		v3.17h1.5v-3.14c0.3-0.01,0.6-0.02,0.9-0.04l3.9,3.73l1.04-1.08l-3.03-2.89c0.74-0.15,1.48-0.4,2.18-0.74
		c1.62,1.25,8.56,6.89,12.6,14.59C59.7,43,62.45,50.03,59.99,57.39z"/>
	<path class="st28" d="M54.3,58.03c-1.41,1.33-3.38,1.96-5.87,1.86l-0.06,1.5c0.18,0.01,0.36,0.01,0.54,0.01
		c2.65,0,4.81-0.77,6.42-2.28c2.69-2.54,2.8-6.23,2.81-6.39l-1.5-0.03C56.63,52.73,56.54,55.91,54.3,58.03z"/>
	<path class="st28" d="M46.39,37.58c0-0.53-0.43-0.96-0.96-0.96H35.39c-0.53,0-0.96,0.43-0.96,0.96c0,0.53,0.43,0.96,0.96,0.96h2.51
		c2.02,0.07,3.22,0.88,3.61,2.43h-6.12c-0.53,0-0.96,0.43-0.96,0.96s0.43,0.96,0.96,0.96h6.15c-0.17,0.75-0.58,1.35-1.22,1.79
		c-0.64,0.44-1.47,0.66-2.49,0.67h-1.94c-0.62,0-1.12,0.5-1.11,1.12c0,0.26,0.1,0.51,0.27,0.71l6.25,7.31h2.79v-0.15l-6.06-7.06
		c1.79,0,3.19-0.37,4.2-1.1c1.01-0.74,1.58-1.83,1.73-3.28h1.47c0.53,0,0.96-0.43,0.96-0.96s-0.43-0.96-0.96-0.96h-1.51
		c-0.14-0.96-0.47-1.77-1-2.43h2.5C45.96,38.55,46.39,38.12,46.39,37.58z"/>
</g>
</svg>
