<?xml version="1.0" encoding="utf-8"?>
<!-- Generator: Adobe Illustrator 25.4.1, SVG Export Plug-In . SVG Version: 6.00 Build 0)  -->
<svg version="1.1" id="Layer_1" xmlns="http://www.w3.org/2000/svg" xmlns:xlink="http://www.w3.org/1999/xlink" x="0px" y="0px"
	 viewBox="0 0 58 58" style="enable-background:new 0 0 58 58;" xml:space="preserve">
<style type="text/css">
	.st0{fill:#EDEDED;}
	.st1{fill:#FFFFFF;}
	.st2{fill:none;stroke:#000000;stroke-miterlimit:10;}
	.st3{fill:#BC4236;}
	.st4{fill:#F98A00;}
	.st5{fill:#BEDDFC;}
	.st6{opacity:0.5;fill:#FFFFFF;}
	.st7{fill:url(#SVGID_00000085210315222573885050000008507784291897247370_);}
	.st8{clip-path:url(#SVGID_00000049921310251109929700000004256300465396706688_);}
	.st9{clip-path:url(#SVGID_00000127006588255804455860000008439497583592386188_);}
	.st10{opacity:0.5;fill:#E5E5E5;}
	.st11{fill:#C1C1C1;}
	.st12{fill:#505050;}
	.st13{fill:#CD486B;}
	.st14{fill:#1EA0E2;}
	.st15{fill:#4267B2;}
	.st16{opacity:0.5;}
	.st17{fill:none;stroke:#FFFFFF;stroke-miterlimit:10;}
	.st18{display:none;fill:none;stroke:#DDDDDD;stroke-miterlimit:10;}
	.st19{fill:#DDDDDD;}
	.st20{fill:#2E3192;}
	.st21{fill:none;stroke:#BC4236;stroke-width:1.5;stroke-miterlimit:10;}
	.st22{fill:none;stroke:#BC4236;stroke-width:1.5;stroke-linecap:round;stroke-miterlimit:10;}
	.st23{fill:none;stroke:#BC4236;stroke-linecap:round;stroke-miterlimit:10;}
	.st24{opacity:0.8;fill:#0071BC;}
	.st25{opacity:0.88;fill:#07173B;}
	.st26{fill:none;stroke:#000000;stroke-width:1.5;stroke-miterlimit:10;}
	.st27{fill:none;stroke:#D33129;stroke-width:1.5;stroke-miterlimit:10;}
	.st28{fill:#D33129;}
	.st29{fill:none;stroke:#FFFFFF;stroke-width:1.5;stroke-miterlimit:10;}
	.st30{fill:#07173B;}
	.st31{opacity:0.4;}
	.st32{fill:url(#SVGID_00000062188755600540450050000009428079535380031126_);}
	.st33{fill:url(#SVGID_00000158746553784964980870000003124723969727826621_);}
	.st34{fill:url(#SVGID_00000151541334391715147640000001476376068684552863_);}
	.st35{fill:url(#SVGID_00000060730762015650108860000001778253839739246777_);}
	.st36{fill:url(#SVGID_00000047031669066324751400000017333126090348116871_);}
	.st37{fill:url(#SVGID_00000119083958833674382140000010377574171147920297_);}
	.st38{fill:url(#SVGID_00000055685065683582735570000007379218496469344172_);}
	.st39{fill:url(#SVGID_00000088113315330112658850000017128982288090471316_);}
	.st40{fill:url(#SVGID_00000119096783585338410300000017674442885465970590_);}
	.st41{fill:url(#SVGID_00000155846467614161723200000014394949173997511054_);}
	.st42{fill:url(#SVGID_00000124868125750627022480000016240725552179371140_);}
	.st43{fill:url(#SVGID_00000018220605785109484040000014065117563734885527_);}
	.st44{fill:url(#SVGID_00000088851693612951183880000015667962293582648727_);}
	.st45{fill:url(#SVGID_00000096779736272935951510000010088267464754374581_);}
	.st46{fill:url(#SVGID_00000173851908213704473900000003662363056318561957_);}
	.st47{fill:url(#SVGID_00000171720706451429660580000006603604541448126390_);}
	.st48{fill:url(#SVGID_00000019655235753584163090000002905431838483167673_);}
	.st49{fill:url(#SVGID_00000135691682832951101510000017144834173027531690_);}
	.st50{fill:url(#SVGID_00000039124784596051615760000002081564650502993838_);}
	.st51{fill:url(#SVGID_00000001643565804829958440000008670919299811443640_);}
	.st52{fill:url(#SVGID_00000042704285047020922030000007360774350365722789_);}
	.st53{fill:url(#SVGID_00000106146262765205919940000013686951662969799342_);}
	.st54{fill:url(#SVGID_00000002348919334301244810000013849124271834727871_);}
	.st55{fill:url(#SVGID_00000123425412208007051330000010033618870569611952_);}
	.st56{fill:url(#SVGID_00000044156368130795126880000009981583148967449748_);}
	.st57{fill:url(#SVGID_00000083087402309589858480000012907136619834547635_);}
	.st58{fill:url(#SVGID_00000124163118654056782540000000101736096162815624_);}
	.st59{fill:url(#SVGID_00000075120314012942450810000000435772909072807825_);}
	.st60{fill:url(#SVGID_00000044900812532516137260000016099651991259262081_);}
	.st61{fill:url(#SVGID_00000003823879667324231500000001251560646594744461_);}
	.st62{fill:url(#SVGID_00000092437995651862206510000011421832197461292207_);}
	.st63{fill:url(#SVGID_00000101795221369091097900000013249909328777518783_);}
	.st64{fill:url(#SVGID_00000039823688405476513590000011443951532070304419_);}
	.st65{fill:url(#SVGID_00000031921872068539995690000012978946993390594691_);}
	.st66{fill:url(#SVGID_00000115480937028832224400000017869609585446934157_);}
	.st67{fill:url(#SVGID_00000106852488568802476600000004480956376310776509_);}
	.st68{fill:url(#SVGID_00000018232448677827168340000015262041336600881281_);}
	.st69{fill:url(#SVGID_00000173872595328189968860000014528914771089612217_);}
	.st70{fill:url(#SVGID_00000035503869759887343950000009439631092960870052_);}
	.st71{fill:url(#SVGID_00000027579644667272896250000006065762115368054162_);}
	.st72{fill:url(#SVGID_00000062186673585318336140000001444078181771981483_);}
	.st73{fill:url(#SVGID_00000074413489297234963670000017887842837474889106_);}
	.st74{fill:url(#SVGID_00000092426404817785652340000012006702251678438313_);}
	.st75{fill:url(#SVGID_00000026865802776924376910000013252943901077372336_);}
	.st76{fill:url(#SVGID_00000140699676704077297760000014288189211121487292_);}
	.st77{fill:url(#SVGID_00000003090026236802228650000007518286914220352437_);}
	.st78{fill:url(#SVGID_00000002356580198306419500000004207730501527090617_);}
	.st79{fill:url(#SVGID_00000164490440886305655600000015777448438649763771_);}
	.st80{fill:url(#SVGID_00000032640531904431722210000017933004115675527316_);}
	.st81{fill:url(#SVGID_00000183227820743579426420000004866638545574055352_);}
	.st82{fill:url(#SVGID_00000150084183543918093210000003138383273543018903_);}
	.st83{fill:url(#SVGID_00000074441985123946843650000004544360773622177981_);}
	.st84{fill:url(#SVGID_00000096039387506740752100000009742821968336085378_);}
	.st85{fill:url(#SVGID_00000160872375237845529030000004964379951654869948_);}
	.st86{fill:url(#SVGID_00000085957298335273911170000001749514230305792146_);}
	.st87{fill:none;stroke:#BC4236;stroke-miterlimit:10;}
	.st88{fill:url(#SVGID_00000168084713382488188720000009907562416478558365_);}
	.st89{clip-path:url(#SVGID_00000103253756546900284030000017426287906932241314_);}
	.st90{clip-path:url(#SVGID_00000154397701161814539050000001742853030118130832_);}
	.st91{clip-path:url(#SVGID_00000029767572332100803190000002523267297560776582_);}
	.st92{fill:none;stroke:#666666;stroke-miterlimit:10;}
	.st93{fill:#E1E8ED;}
	.st94{clip-path:url(#SVGID_00000034071736505987961530000010310533512497344185_);}
	.st95{fill:#114C91;}
	.st96{fill:#07173B;stroke:#07173B;stroke-miterlimit:10;}
	.st97{fill:none;stroke:#07173B;stroke-miterlimit:10;}
	.st98{fill:url(#SVGID_00000183954491307808592080000002707908760594033043_);}
	.st99{fill:url(#SVGID_00000165917565062970665530000015879895164285773483_);}
	.st100{fill:url(#SVGID_00000165198003732079099600000008704909334963725991_);}
	.st101{fill:url(#SVGID_00000105420763049077683830000007053610009475063213_);}
	.st102{fill:url(#SVGID_00000074431331660366966510000007166226049597471641_);}
	.st103{fill:url(#SVGID_00000069380151553192331410000003117655674752339866_);}
	.st104{fill:url(#SVGID_00000016048914845063476070000006137205297078708922_);}
	.st105{fill:url(#SVGID_00000102510559078573925630000006565903070620354722_);}
	.st106{fill:url(#SVGID_00000002369980947986269250000014191159666473752248_);}
	.st107{fill:url(#SVGID_00000028290247610973432250000005927089880434955952_);}
	.st108{fill:url(#SVGID_00000164504125827261122480000000041143956562207412_);}
	.st109{fill:url(#SVGID_00000063600803632218878850000017043324619928741265_);}
	.st110{fill:url(#SVGID_00000083776214077561360280000013303027455516881343_);}
	.st111{fill:url(#SVGID_00000072962196982306094960000010991494733791681669_);}
	.st112{fill:url(#SVGID_00000169515509102896056480000002272686881103696818_);}
	.st113{fill:url(#SVGID_00000134928554993187348110000012938298783779209100_);}
	.st114{fill:url(#SVGID_00000179628798190019459560000012445270629860928401_);}
	.st115{fill:url(#SVGID_00000010300840380569886590000002783251966149161874_);}
	.st116{fill:url(#SVGID_00000150796372729157506270000011059089075447929244_);}
	.st117{fill:url(#SVGID_00000029742718949245880070000006848489865170495117_);}
	.st118{fill:url(#SVGID_00000081610555361440574550000011542309146466474411_);}
	.st119{fill:url(#SVGID_00000103961751106035061630000007597407651049660300_);}
	.st120{fill:url(#SVGID_00000003067397275718162140000018380302601700542907_);}
	.st121{fill:url(#SVGID_00000008136349387632330510000015043195723154492335_);}
	.st122{fill:url(#SVGID_00000166661412225314380290000006352910632249454494_);}
	.st123{fill:url(#SVGID_00000077297347507848661890000016884118272588734890_);}
	.st124{fill:url(#SVGID_00000084516329377886746820000000347658119642207635_);}
	.st125{fill:url(#SVGID_00000175283718298147600750000005711361391453051522_);}
	.st126{fill:url(#SVGID_00000019646143863849915120000016861534682754741638_);}
	.st127{fill:url(#SVGID_00000010308412515805314320000013016839330771501997_);}
	.st128{fill:url(#SVGID_00000072258304133621546450000018264070880327457674_);}
	.st129{fill:url(#SVGID_00000133520817071274446730000015114842660826317480_);}
	.st130{fill:url(#SVGID_00000056396770685638313610000001120471346961592453_);}
	.st131{fill:url(#SVGID_00000139283548006581354350000013302252701309041080_);}
	.st132{fill:url(#SVGID_00000018233994255576625160000015646925724512749969_);}
	.st133{fill:url(#SVGID_00000035491035729782154500000004046768157123870342_);}
	.st134{fill:url(#SVGID_00000018931346208446524760000012883389057915223943_);}
	.st135{fill:url(#SVGID_00000059272984834635745760000002945372417391491476_);}
	.st136{fill:url(#SVGID_00000173158468691132235970000004103719618637930154_);}
	.st137{fill:url(#SVGID_00000183238822613583799320000003399957452631184017_);}
	.st138{fill:url(#SVGID_00000111156827884055327690000007220422229472650907_);}
	.st139{fill:url(#SVGID_00000079453491171276796670000004948668205362806922_);}
	.st140{fill:url(#SVGID_00000010305733556328000030000016264499501909724306_);}
	.st141{fill:url(#SVGID_00000162345078063318587600000016791893170922442937_);}
	.st142{fill:url(#SVGID_00000087379812127756091850000008442874950654117515_);}
	.st143{fill:url(#SVGID_00000001650579316337012000000016129815667944195503_);}
	.st144{fill:url(#SVGID_00000027588531495090164810000002877711691102819976_);}
	.st145{fill:url(#SVGID_00000129183071102243806030000001263571437514897852_);}
	.st146{fill:url(#SVGID_00000049922352828664971890000001080242129164532903_);}
	.st147{fill:url(#SVGID_00000026123623715373387030000000302830743075369902_);}
	.st148{fill:url(#SVGID_00000142173838429369243160000010824222812854731427_);}
	.st149{fill:url(#SVGID_00000086660207770290846810000012653717147536841126_);}
	.st150{fill:url(#SVGID_00000011033065244564543060000007682088322303185084_);}
	.st151{fill:url(#SVGID_00000079476803593729832310000015172535362972309129_);}
	.st152{fill:url(#SVGID_00000136380672457884675280000005154152532599590322_);}
	.st153{fill:none;stroke:#FFFFFF;stroke-width:1.5;stroke-linecap:round;stroke-miterlimit:10;}
	.st154{fill:none;stroke:#FFFFFF;stroke-width:0.5;stroke-miterlimit:10;}
	.st155{opacity:0.2;fill:none;stroke:#FFFFFF;stroke-miterlimit:10;}
</style>
<g>
	<path class="st3" d="M36.92,20.54l0-7.11c0-0.6-0.34-1.12-0.88-1.36c-0.56-0.25-1.19-0.14-1.64,0.27
		c-6.32,5.71-15.22,6.9-15.58,6.95H8.41c-0.83,0-1.5,0.67-1.5,1.5v0.87c-1.92,0.26-3.42,1.89-3.42,3.88s1.49,3.63,3.42,3.88v0.81
		c0,0.83,0.67,1.5,1.5,1.5h1.26c0.45,0.85,1.94,3.84,2.46,7.24c0.75,4.9,1.78,7.67,3.05,8.25c0.17,0.08,0.62,0.28,2.21,0.28
		c0.52,0,1.16-0.02,1.96-0.08c0.57-0.04,1.09-0.35,1.38-0.84c0.29-0.49,0.33-1.09,0.11-1.61c-0.74-1.68-1.98-4.88-1.98-7.36v-4.68
		h-1v4.68c0,2.53,1.12,5.61,2.06,7.76c0.1,0.23,0.08,0.48-0.04,0.69c-0.13,0.21-0.35,0.35-0.6,0.36c-2.69,0.18-3.47-0.02-3.69-0.12
		c-0.69-0.31-1.7-2.44-2.48-7.49c-0.48-3.1-1.69-5.82-2.32-7.08h8.05c6.96,0.58,12.76,4.76,15.59,7.2c0.28,0.24,0.62,0.37,0.97,0.37
		c0.21,0,0.42-0.05,0.62-0.14c0.54-0.25,0.88-0.77,0.88-1.37l0-7.25c2.43-0.38,4.3-2.47,4.3-5C41.22,23.01,39.35,20.92,36.92,20.54z
		 M4.49,25.54c0-1.44,1.05-2.64,2.42-2.88v5.77C5.53,28.18,4.49,26.98,4.49,25.54z M18.36,30.74H8.41c-0.28,0-0.5-0.22-0.5-0.5
		v-9.45c0-0.28,0.22-0.5,0.5-0.5h9.95V30.74z M35.91,37.79c0,0.3-0.22,0.43-0.29,0.46c-0.07,0.03-0.3,0.12-0.53-0.08
		c-2.87-2.47-8.68-6.65-15.73-7.39V20.22c1.92-0.29,9.79-1.78,15.72-7.14c0.24-0.22,0.5-0.13,0.57-0.1
		c0.09,0.04,0.29,0.16,0.29,0.45L35.91,37.79z M36.92,29.55l0-8c1.88,0.37,3.3,2.02,3.3,4C40.22,27.53,38.8,29.18,36.92,29.55z"/>
	<path class="st3" d="M51.87,17.12c0.06,0,0.12-0.01,0.18-0.03l2.14-0.81c0.26-0.1,0.39-0.39,0.29-0.64
		c-0.1-0.26-0.39-0.39-0.64-0.29l-2.14,0.81c-0.26,0.1-0.39,0.39-0.29,0.64C51.48,17,51.67,17.12,51.87,17.12z"/>
	<path class="st3" d="M41.72,20.97c0.06,0,0.12-0.01,0.18-0.03l8.21-3.11c0.26-0.1,0.39-0.39,0.29-0.64
		c-0.1-0.26-0.39-0.39-0.64-0.29L41.54,20c-0.26,0.1-0.39,0.39-0.29,0.64C41.33,20.84,41.52,20.97,41.72,20.97z"/>
	<path class="st3" d="M54.19,34.31l-2.14-0.81c-0.26-0.1-0.55,0.03-0.64,0.29c-0.1,0.26,0.03,0.55,0.29,0.64l2.14,0.81
		c0.06,0.02,0.12,0.03,0.18,0.03c0.2,0,0.39-0.12,0.47-0.32C54.58,34.7,54.45,34.41,54.19,34.31z"/>
	<path class="st3" d="M50.11,32.77l-8.21-3.11c-0.26-0.1-0.55,0.03-0.64,0.29c-0.1,0.26,0.03,0.55,0.29,0.64l8.21,3.11
		c0.06,0.02,0.12,0.03,0.18,0.03c0.2,0,0.39-0.12,0.47-0.32C50.5,33.15,50.37,32.86,50.11,32.77z"/>
	<path class="st3" d="M53.92,19.97l-7.83,1.43c-0.27,0.05-0.45,0.31-0.4,0.58c0.04,0.24,0.25,0.41,0.49,0.41
		c0.03,0,0.06,0,0.09-0.01l7.83-1.43c0.27-0.05,0.45-0.31,0.4-0.58C54.45,20.1,54.18,19.93,53.92,19.97z"/>
	<path class="st3" d="M42.9,23l1.27-0.23c0.27-0.05,0.45-0.31,0.4-0.58c-0.05-0.27-0.32-0.45-0.58-0.4l-1.27,0.23
		c-0.27,0.05-0.45,0.31-0.4,0.58c0.04,0.24,0.25,0.41,0.49,0.41C42.84,23,42.87,23,42.9,23z"/>
	<path class="st3" d="M50.36,29.37c-0.27-0.05-0.53,0.13-0.58,0.4c-0.05,0.27,0.13,0.53,0.4,0.58l3.74,0.7
		c0.03,0.01,0.06,0.01,0.09,0.01c0.24,0,0.45-0.17,0.49-0.41c0.05-0.27-0.13-0.53-0.4-0.58L50.36,29.37z"/>
	<path class="st3" d="M42.72,28.96l5.45,1.02c0.03,0.01,0.06,0.01,0.09,0.01c0.24,0,0.45-0.17,0.49-0.41
		c0.05-0.27-0.13-0.53-0.4-0.58l-5.45-1.02c-0.27-0.05-0.53,0.13-0.58,0.4C42.27,28.65,42.45,28.91,42.72,28.96z"/>
</g>
</svg>
