<?xml version="1.0" encoding="utf-8"?>
<!-- Generator: Adobe Illustrator 25.4.1, SVG Export Plug-In . SVG Version: 6.00 Build 0)  -->
<svg version="1.1" id="Layer_1" xmlns="http://www.w3.org/2000/svg" xmlns:xlink="http://www.w3.org/1999/xlink" x="0px" y="0px"
	 viewBox="0 0 214 214" style="enable-background:new 0 0 214 214;" xml:space="preserve">
<style type="text/css">
	.st0{fill:#FFFFFF;}
</style>
<g>
	<path class="st0" d="M155.25,116.36l-19.03,31.03l-29.02-46.6V48.79h67.57l-18.29-21.77l18.3-21.73h-70.57v95.5l-27.8,45.34
		l-18.54-29.77L1.24,208.71h211.52L155.25,116.36z M107.21,8.29h61.12l-15.77,18.73l15.78,18.77h-61.13V8.29z M6.6,205.71
		l51.29-83.65l16.76,26.92l-34.78,56.73H6.6z M43.39,205.71l62.33-101.65l63.29,101.65H43.39z M138,150.23l17.27-28.17l52.08,83.65
		h-34.81L138,150.23z"/>
	
		<rect x="127.5" y="139.35" transform="matrix(0.8499 -0.5269 0.5269 0.8499 -69.6644 93.3241)" class="st0" width="3" height="59.22"/>
	<circle class="st0" cx="106.44" cy="133.4" r="4"/>
</g>
</svg>
