<?xml version="1.0" encoding="utf-8"?>
<!-- Generator: Adobe Illustrator 25.4.1, SVG Export Plug-In . SVG Version: 6.00 Build 0)  -->
<svg version="1.1" id="Layer_1" xmlns="http://www.w3.org/2000/svg" xmlns:xlink="http://www.w3.org/1999/xlink" x="0px" y="0px"
	 viewBox="0 0 98 98" style="enable-background:new 0 0 98 98;" xml:space="preserve">
<style type="text/css">
	.st0{fill:#FFFFFF;}
</style>
<g>
	<path class="st0" d="M91.75,49.29l0.64-0.83l-0.7-0.78c-14.3-15.78-29.37-23.43-44.77-22.73C22.88,26.05,6.91,46.89,6.24,47.78
		l-0.59,0.79l0.62,0.76c12.94,15.77,26.98,23.76,41.74,23.76c0.2,0,0.4,0,0.6,0C73.38,72.71,91.01,50.25,91.75,49.29z M48.56,70.58
		c-0.18,0-0.37,0-0.55,0c-13.74,0-26.91-7.42-39.16-22.06c3.12-3.76,17.84-20.13,38.18-21.06c14.36-0.64,28.52,6.45,42.08,21.11
		C85.7,52.6,69.54,70.28,48.56,70.58z"/>
	<path class="st0" d="M49,28.75c-11.17,0-20.25,9.08-20.25,20.25S37.83,69.25,49,69.25S69.25,60.17,69.25,49S60.17,28.75,49,28.75z
		 M49,66.75c-9.79,0-17.75-7.96-17.75-17.75S39.21,31.25,49,31.25S66.75,39.21,66.75,49S58.79,66.75,49,66.75z"/>
	<path class="st0" d="M49,40.74c-4.56,0-8.26,3.7-8.26,8.26c0,4.56,3.7,8.26,8.26,8.26s8.26-3.7,8.26-8.26
		C57.26,44.44,53.56,40.74,49,40.74z"/>
	<path class="st0" d="M75,1.75h-4v2.5h4c10.34,0,18.75,8.41,18.75,18.75v4h2.5v-4C96.25,11.28,86.72,1.75,75,1.75z"/>
	<path class="st0" d="M4.25,23C4.25,12.66,12.66,4.25,23,4.25h4v-2.5h-4C11.28,1.75,1.75,11.28,1.75,23v4h2.5V23z"/>
	<path class="st0" d="M4.25,75v-4h-2.5v4c0,11.72,9.53,21.25,21.25,21.25h4v-2.5h-4C12.66,93.75,4.25,85.34,4.25,75z"/>
	<path class="st0" d="M93.75,75c0,10.34-8.41,18.75-18.75,18.75h-4v2.5h4c11.72,0,21.25-9.53,21.25-21.25v-4h-2.5V75z"/>
</g>
</svg>
